<?xml version="1.0" standalone="no"?>
<!DOCTYPE svg PUBLIC "-//W3C//DTD SVG 20010904//EN"
 "http://www.w3.org/TR/2001/REC-SVG-20010904/DTD/svg10.dtd">
<svg version="1.0" xmlns="http://www.w3.org/2000/svg"
 width="323.000000pt" height="194.000000pt" viewBox="0 0 323.000000 194.000000"
 preserveAspectRatio="xMidYMid meet">

<g transform="translate(0.000000,194.000000) scale(0.100000,-0.100000)"
fill="#000000" stroke="none">
<path d="M2759 1763 c-68 -87 -154 -190 -191 -230 -38 -40 -68 -80 -68 -90 1
-60 76 -159 154 -204 74 -42 88 -39 170 39 40 37 143 121 229 187 111 86 156
126 156 141 2 43 -59 142 -123 202 -62 57 -153 112 -187 112 -10 0 -67 -64
-140 -157z m204 96 c92 -47 183 -147 206 -227 9 -31 9 -32 -107 -123 -64 -51
-136 -108 -159 -126 l-42 -35 -15 36 c-20 48 -101 133 -151 158 -22 11 -42 22
-44 24 -7 7 242 314 255 314 8 0 34 -10 57 -21z m-277 -350 c52 -24 100 -77
126 -137 l20 -44 -23 -24 c-12 -13 -25 -24 -28 -24 -3 0 -15 19 -26 43 -25 53
-90 117 -144 142 l-41 18 22 24 c26 28 40 29 94 2z m-55 -97 c51 -36 119 -126
119 -159 0 -39 -110 13 -164 78 -28 33 -56 87 -56 109 0 22 49 8 101 -28z"/>
<path d="M2310 1315 c0 -8 7 -15 15 -15 8 0 15 7 15 15 0 8 -7 15 -15 15 -8 0
-15 -7 -15 -15z"/>
<path d="M2454 1309 c-8 -14 11 -33 25 -25 6 4 11 14 11 22 0 16 -26 19 -36 3z"/>
<path d="M2203 1235 c-3 -9 -3 -18 0 -22 10 -10 37 6 37 22 0 20 -29 20 -37 0z"/>
<path d="M2416 1213 c-12 -12 -6 -33 9 -33 8 0 15 6 15 14 0 17 -14 28 -24 19z"/>
<path d="M2602 1154 c4 -21 22 -23 26 -1 2 10 -3 17 -13 17 -10 0 -15 -6 -13
-16z"/>
<path d="M1300 1121 c-78 -25 -138 -81 -161 -148 -18 -52 -16 -151 4 -188 8
-16 39 -53 69 -82 43 -43 70 -59 143 -86 98 -36 112 -53 78 -96 -38 -47 -140
-42 -221 12 l-40 26 -36 -68 c-20 -38 -36 -74 -36 -80 0 -6 11 -16 24 -22 14
-7 22 -17 20 -24 -8 -20 115 -74 200 -87 165 -25 311 43 347 163 5 19 10 62
10 96 0 75 -22 123 -84 180 -53 49 -70 59 -162 93 -81 30 -94 53 -49 89 36 28
90 27 146 -3 l45 -24 37 75 c20 42 36 76 34 77 -2 1 -15 7 -31 14 -15 6 -26
17 -25 24 2 6 -24 23 -57 36 -64 26 -207 39 -255 23z"/>
<path d="M2049 1116 c-67 -19 -145 -64 -184 -108 -108 -119 -133 -316 -61
-475 33 -71 148 -186 219 -218 142 -65 317 -53 439 31 87 60 148 188 148 309
0 63 -1 65 -25 65 -20 0 -25 5 -25 25 l0 25 -195 0 -195 0 0 -75 c0 -73 1 -75
25 -75 20 0 25 -5 25 -25 0 -23 3 -25 50 -25 56 0 61 -7 28 -38 -32 -29 -71
-42 -130 -42 -72 0 -113 23 -133 73 -20 50 -22 147 -4 207 18 59 84 126 134
136 63 11 127 -1 152 -30 12 -14 26 -26 31 -26 5 0 15 -11 22 -25 7 -14 17
-25 21 -25 4 0 46 16 93 36 l86 36 -16 31 c-23 44 -108 131 -163 166 -87 56
-234 76 -342 47z"/>
<path d="M160 1105 c0 -9 -121 -721 -127 -742 -4 -20 -1 -23 25 -23 26 0 29
-3 24 -25 l-4 -26 98 3 99 3 29 198 30 199 69 -176 c45 -115 74 -176 83 -176
8 0 19 -11 24 -25 8 -21 16 -25 47 -25 l38 0 75 184 c41 102 78 179 81 173 4
-7 12 -50 18 -97 26 -185 32 -210 51 -210 11 0 20 -10 24 -25 6 -24 8 -25 101
-25 84 0 95 2 94 18 0 9 -28 181 -62 382 -59 340 -64 365 -84 368 -13 2 -24
13 -27 28 -6 24 -8 25 -103 22 l-96 -3 -66 -177 c-36 -97 -68 -179 -71 -182
-3 -2 -32 67 -64 155 -47 126 -63 159 -77 159 -12 0 -21 10 -25 25 -6 25 -8
25 -105 25 -54 0 -99 -2 -99 -5z"/>
<path d="M2550 965 c0 -8 7 -15 15 -15 8 0 15 7 15 15 0 8 -7 15 -15 15 -8 0
-15 -7 -15 -15z"/>
<path d="M2990 263 c0 -44 -3 -54 -12 -45 -33 33 -88 -2 -88 -55 0 -50 57 -82
88 -51 9 9 12 9 12 0 0 -7 5 -12 10 -12 6 0 10 43 10 110 0 67 -4 110 -10 110
-5 0 -10 -26 -10 -57z m-10 -67 c28 -35 -11 -93 -47 -70 -36 22 -23 84 17 84
10 0 23 -7 30 -14z"/>
<path d="M1722 289 c2 -6 8 -10 13 -10 5 0 11 4 13 10 2 6 -4 11 -13 11 -9 0
-15 -5 -13 -11z"/>
<path d="M1200 164 c0 -49 3 -64 14 -64 11 0 16 15 18 53 3 44 6 52 23 52 17
0 20 -8 23 -52 4 -61 22 -72 22 -14 0 52 8 71 31 71 16 0 19 -8 19 -55 0 -42
3 -55 15 -55 18 0 21 63 5 104 -10 27 -52 37 -65 16 -4 -7 -11 -8 -18 -1 -7 5
-29 9 -49 9 l-38 0 0 -64z"/>
<path d="M1442 214 c-44 -31 -15 -114 41 -114 28 0 67 38 67 66 0 28 -36 64
-63 64 -12 0 -33 -7 -45 -16z m79 -25 c16 -30 -3 -69 -34 -69 -29 0 -47 17
-47 45 0 45 60 63 81 24z"/>
<path d="M1570 225 c0 -11 55 -115 60 -115 7 0 19 24 46 88 19 44 -2 42 -23
-3 -9 -19 -20 -35 -23 -35 -3 0 -14 16 -23 35 -9 19 -21 35 -27 35 -5 0 -10
-2 -10 -5z"/>
<path d="M1720 165 c0 -51 3 -65 15 -65 12 0 15 14 15 65 0 51 -3 65 -15 65
-12 0 -15 -14 -15 -65z"/>
<path d="M1807 212 c-52 -58 17 -143 79 -98 25 19 12 31 -15 14 -15 -9 -26
-10 -38 -2 -34 21 -26 34 21 34 39 0 46 3 46 19 0 46 -62 67 -93 33z m71 -19
c2 -9 -8 -13 -33 -13 -33 0 -36 2 -25 15 15 18 51 16 58 -2z"/>
<path d="M2031 217 c-15 -19 -5 -42 25 -56 32 -14 26 -37 -10 -34 -33 2 -34
-15 -1 -23 55 -14 75 45 25 71 -34 17 -40 38 -10 33 10 -2 20 2 22 7 5 16 -38
17 -51 2z"/>
<path d="M2162 214 c-44 -31 -15 -114 41 -114 28 0 67 38 67 66 0 28 -36 64
-63 64 -12 0 -33 -7 -45 -16z m79 -25 c16 -30 -3 -69 -34 -69 -29 0 -47 17
-47 45 0 45 60 63 81 24z"/>
<path d="M2407 212 c-23 -26 -21 -75 4 -97 17 -16 25 -17 50 -8 27 10 29 9 29
-11 0 -40 -53 -65 -66 -31 -8 19 -24 19 -24 0 0 -16 30 -35 54 -35 9 0 25 9
36 20 17 17 20 33 20 100 0 47 -4 80 -10 80 -5 0 -10 -5 -10 -12 0 -9 -3 -9
-12 0 -18 18 -53 15 -71 -6z m73 -16 c28 -35 -11 -93 -47 -70 -36 22 -23 84
17 84 10 0 23 -7 30 -14z"/>
<path d="M2582 214 c-44 -31 -15 -114 41 -114 28 0 67 38 67 66 0 28 -36 64
-63 64 -12 0 -33 -7 -45 -16z m79 -25 c16 -30 -3 -69 -34 -69 -29 0 -47 17
-47 45 0 45 60 63 81 24z"/>
<path d="M2742 214 c-44 -31 -15 -114 41 -114 28 0 67 38 67 66 0 28 -36 64
-63 64 -12 0 -33 -7 -45 -16z m79 -25 c16 -30 -3 -69 -34 -69 -29 0 -47 17
-47 45 0 45 60 63 81 24z"/>
</g>
</svg>
